/* XPM */
static char *_8db76cd93c1417ad0fd6aff50ca59eeDJMPHCa79jksYoNG[] = {
/* columns rows colors chars-per-pixel */
"64 64 250 2 ",
"   c #050102",
".  c #0E0304",
"X  c #110506",
"o  c #190707",
"O  c #110608",
"+  c #140A0A",
"@  c #1B0C0B",
"#  c #1A160B",
"$  c #171011",
"%  c #1C1313",
"&  c #260B09",
"*  c #3D0D06",
"=  c #20110F",
"-  c #29170B",
";  c #3A1609",
":  c #231411",
">  c #271C17",
",  c #311512",
"<  c #1A2409",
"1  c #22250F",
"2  c #243A0C",
"3  c #27221B",
"4  c #3A2518",
"5  c #2A3812",
"6  c #2D2523",
"7  c #362B27",
"8  c #383629",
"9  c #3C3534",
"0  c #47190A",
"q  c #571B09",
"w  c #491D12",
"e  c #631E0A",
"r  c #50240E",
"t  c #4A2717",
"y  c #562916",
"u  c #57341E",
"i  c #5B321C",
"p  c #63260C",
"a  c #752B0C",
"s  c #662A16",
"d  c #673316",
"f  c #64331B",
"g  c #6B341B",
"h  c #6B391D",
"j  c #773719",
"k  c #4F2F28",
"l  c #46342A",
"z  c #5C3523",
"x  c #5B3A23",
"c  c #583728",
"v  c #453B36",
"b  c #602F23",
"n  c #643B27",
"m  c #6C3C23",
"M  c #733C22",
"N  c #783D25",
"B  c #1E4102",
"V  c #214405",
"C  c #24460B",
"Z  c #2B440A",
"A  c #26490A",
"S  c #2A4B0D",
"D  c #324C0C",
"F  c #2C4D11",
"G  c #2D4518",
"H  c #324E12",
"J  c #384E17",
"K  c #2E5112",
"L  c #335215",
"P  c #395419",
"I  c #38482A",
"U  c #3B5624",
"Y  c #434E13",
"T  c #4D4F13",
"R  c #744719",
"E  c #5C412B",
"W  c #435929",
"Q  c #49433B",
"!  c #514E33",
"~  c #6C4225",
"^  c #65422C",
"/  c #68452A",
"(  c #6B442B",
")  c #744224",
"_  c #7B4324",
"`  c #73452B",
"'  c #77482B",
"]  c #7C4A2C",
"[  c #75552B",
"{  c #684935",
"}  c #754D33",
"|  c #7A4C32",
" . c #764F3A",
".. c #6B513A",
"X. c #765335",
"o. c #7B5335",
"O. c #74533B",
"+. c #7B543C",
"@. c #7C593B",
"#. c #4B6237",
"$. c #56693A",
"%. c #4D4945",
"&. c #4E4F4E",
"*. c #554D49",
"=. c #57534E",
"-. c #5C5A56",
";. c #6C5746",
":. c #785945",
">. c #645B55",
",. c #725E53",
"<. c #586945",
"1. c #5E7147",
"2. c #67635C",
"3. c #786659",
"4. c #697756",
"5. c #717050",
"6. c #5B5A61",
"7. c #5E626A",
"8. c #666665",
"9. c #756C64",
"0. c #7A7469",
"q. c #6A6B71",
"w. c #6F7176",
"e. c #777777",
"r. c #863B19",
"t. c #883827",
"y. c #88421D",
"u. c #93431A",
"i. c #A1541E",
"p. c #834424",
"a. c #894927",
"s. c #834D2C",
"d. c #944B24",
"f. c #87542B",
"g. c #93532B",
"h. c #99552B",
"j. c #854C33",
"k. c #835334",
"l. c #8C5433",
"z. c #865838",
"x. c #845B3C",
"c. c #8B5C3B",
"v. c #975935",
"b. c #935C3B",
"n. c #A25931",
"m. c #93662B",
"M. c #8B633E",
"N. c #99653D",
"B. c #A76D35",
"V. c #A5673A",
"C. c #825D43",
"Z. c #885C45",
"A. c #945C40",
"S. c #846244",
"D. c #8C6344",
"F. c #84644C",
"G. c #8B654B",
"H. c #8A6A4C",
"J. c #976747",
"K. c #946C4C",
"L. c #96724F",
"P. c #876855",
"I. c #8B6C53",
"U. c #956D55",
"Y. c #8E7257",
"T. c #997759",
"R. c #A46B46",
"E. c #A77549",
"W. c #A67856",
"Q. c #AE7852",
"!. c #897668",
"~. c #977B66",
"^. c #937A6D",
"/. c #857D75",
"(. c #AC7266",
"). c #A37C64",
"_. c #CF755E",
"`. c #7B8667",
"'. c #B0875A",
"]. c #9D8269",
"[. c #898478",
"{. c #988577",
"}. c #8B9075",
"|. c #A78668",
" X c #A3846D",
".X c #B38868",
"XX c #B5906D",
"oX c #A48C73",
"OX c #A88A77",
"+X c #AC947A",
"@X c #B49679",
"#X c #CB906B",
"$X c #7B7A84",
"%X c #807F82",
"&X c #7E8188",
"*X c #888787",
"=X c #938C84",
"-X c #9D8C81",
";X c #928E8B",
":X c #94918E",
">X c #999889",
",X c #8F8F90",
"<X c #989694",
"1X c #9D9C9B",
"2X c #9F9F9E",
"3X c #A99787",
"4X c #B39B83",
"5X c #B2928A",
"6X c #B69C89",
"7X c #A49C95",
"8X c #BAA48C",
"9X c #A8A496",
"0X c #AAAB95",
"qX c #A5A29D",
"wX c #ABA59B",
"eX c #ACAB9C",
"rX c #B7A797",
"tX c #A3A3A3",
"yX c #ADAAA3",
"uX c #AAABA9",
"iX c #B4AEA8",
"pX c #B5B1AB",
"aX c #B8B4A8",
"sX c #BAB5AC",
"dX c #B9B7B5",
"fX c #BDBAB2",
"gX c #CC958B",
"hX c #C3AB97",
"jX c #C8AF92",
"kX c #C5ADAB",
"lX c #C4B6A9",
"zX c #C3BDB4",
"xX c #C3BFBB",
"cX c #EBB3AA",
"vX c #C6C0B7",
"bX c #C7C1B8",
"nX c #C9C3BA",
"mX c #CDC7BE",
"MX c #C5C4C2",
"NX c #CDC6C1",
"BX c #CEC9C2",
"VX c #D2CBC3",
"CX c #D3CAC4",
"ZX c #D6CEC9",
"AX c #D6D1C9",
"SX c #DAD3CB",
"DX c #DAD8D5",
"FX c #E2DED7",
"GX c #E8E7E5",
"HX c #F5F4F3",
/* pixels */
"-X{.F.,.P.} C.x.[ o.} ~ f.z.| j.U.Z.b y z J.D.s.] s.s.a.~ y.e w 0 * ; * y | V.g.V.b.f.f.g.r.Z.T.p.a.] [ R ` c.y / M.[ [ ~ R / X.",
"..:.{  .~.wX:.4 k x u } { ( n :.m ;. .b ^ n o.o.@.( i h ' N r.g.g.d.y.y._ N.N._ _ _ M h d s @.I.y y r y r y i u X.` y r 0 * 0 0 ",
"S.H.A.).I.wXsX;.x l.g.v.h.h.v.d.h.v.N.v.g.v.n.h.z.@.y q ) a.v.B.E.B.'.W.z.N.z.) g d g s O.M.@.S.O.( m f t } n ` @.) h d r t E u ",
"].4XOX XW.U.zXvX{.H.G.] ] _ y.d.h.r.p.t.p.d.d.y.~ P.s s j.h.u.R.n.i.E.].) R _ g d j.p y H.M.s.` ' ) ` j ^ K.y.j.p.j r.j a o.{ u ",
"T.|.T.~.4XI.^.bXbX8XI.S.@.i u u r ; t k y ^ u b o.@.g.g f.R.V.wX@XQ.XXXXl.} x.C.OX{.g m Y.} ~ ` n ( +.]  .F.N n d g d g p :.Y.E ",
"J.D.t.C.oXY.O.-XbXzX~.o.D.r.r.p.j j p.N @.D.A.g.y.d.N s p  X8XaXrXE.T.b.W.8XlXmXdXJ.U.~.).~.Y.{.|.|.W.J.J.U.L.Z.H.@.X.u E M.].H.",
"F.~.Y.C. X~.~.S.wXMXnX3Xb.h.v.R.d.d.h.r.n ' j.( j s s a.r..X4XfXlXQ.4XlXMXnXvXvX{.U.).~.OX5X5X9XnX3XA.A.b.Z.v.U.x.j ~ p a j a R ",
"P.I.Y.F.C.K.U.I.U.eXzXmX3XZ.Z.c.} U.Z.' Z.z.' o.T.+.) ] ` K.hXnXbXBXNXbXvXxXvXfXzXbXzXxXbXbXnXxXiX^.P.3.P.P.F.F.H.[ ) ] N.b.s.] ",
"P.F.C.C.G.O.} ~.U.{.fXbXzXeX3X7X9XeXwXwX9XrXrXrXeX3X7XwXrXrXnXbXbXvXvXvXbXbXvXzXvXvXzXbXzXzXzXBXMXZXCXMXMXMXsXP.:.H.D.:.~.:.@.@.",
"P.Y.P.I.:.:.{ ~.Y.!.mXzXnXBXpX-.-.2.>.2.>.8.2.8.8.2.4.2.*XBXbXbXbXvXvXvXzXvXvXvXvXvXbXzXzXnX;X1XdXdXdXdXdXxXdX3.^ { y O.3Xh d n ",
"U.(.U.Y.C.~.I. XU./.MXtXeXmXNX=X> : > : : : > : - 1 S Z <.nXmXbXzXbXvXnXbXbXvXnXvXvXvXvXzXnXlX9.Z.gX(.=.-.qX7X;.E { t F.oXF.@.X.",
"U.~.L.Y.k.G.).|.~.^.fXtXQ 7XVXZX7X, : > : : 5 5 : @ C L S #.;XnXVXbXvXvXbXbXvXvXbXbXbXbXnXzXmXmXgX_._.c Q qX7X3.+XD.k.M.] [ @.~ ",
"(.OX@X4XD.:.T.T.M.!.dXwXv , eXmXVX7X> : : = 2 P 2 Q $.A K F C #.>XnXmXzXbXbXvXnXbXbXbXbXbXbXvXvXCX(.t.k l uX7X~.+XS.R d h i i ; ",
").).(.).|.3.F.x.f.!.dXqXv @ 3 iXmXVXwX> : : 1 V 1.mXzXL F K K A C #.qXNXbXbXvXnXnXbXbXbXbXbXbXbXNXkXk , l yXtX{.3XoX:.M.n f ~ E ",
"Z.Y.~.).~.+.D.c.} !.dX2Xv = & 6 sXmXCXyX6 = + 9.VXvXVX}.B K F K H A C }.mXbXnXvXbXzXnXnXbXbXnXnXkXCXxX*.4 uXtXE :.F.:.oXJ.B.h.j ",
"+X~.~.].].].T.{ n 9.pX1Xl & > o 7 zXvXCXlXv 3.ZXbXnXvXNX#.C F F F K F C wXmXpXvXbXnXnXzXbXbXbXbXNXnXxXCX7XiXqX! { ;.{ I.N.d.p r ",
"+X~. X5X4XJ.E.J.m !.pX1Xl @ : : X Q mXzXBXmXmXnXbXfXnXBX0XA K S K K K V `.BX<.pXmXaXsXnXvXnXnXvXxXCX-X6 2.pX1X:.] o.| L.W.M./ x ",
"8X6X5X^.^.~.A.J.n {.uX1Xv @ = = = X 3.ZXzXnXvXvXBX>X>XVXBX`.B F F K K A #.dXC }.AX9X0.BXvXvXbXnXxXCXiXo > yX>Xj.J.n.u.i.r.a.~.] ",
"rXrX4X+X5X+XOXT. ./.uX7Xl @ : = & @ @ eXmXzXmXfXuXAX`.>XAXAX`.B K F K A W >XB 1.VXaXP iXmXvXvXnXxXzXZX*.> pX:X' g.f.g.M.d.l.O.i ",
"kXlX4X~.8X.X(.(.t.P.uX<Xl @ % @ = : . e.ZXbXxX#.F 0XMX1.4.qXfX`.C K K S U 4.C U bXfXF `.CXvXvXnXxXzXCXwX3 yX:X( k.J.c.T.'.c.h m ",
"9XrX{.+.oX5X{.).{ !.uX<Xl @ = = @ @ X :XmXmX1.V A K *XdX`.C U #.F F F F F F F F aXfXS #.mXvXbXbXmXlXzXSX{.qX=Xg s h j.J.N.v.g.s ",
"*.Q ~.XXXX.X).I.b /.uX<Xl o = = : X l mXZX}.V H F F V K W F A A F F S F F F F C eXpXA K yXBXbXbXnXnXe.wXDXfX*X~ ] [ c.f.k.R g r ",
"7 : 6XSXlX5XZ.| N gXkX<Xl @ = = @ @ wXZXyXF F F F F K A V F F F F S F F F F K V 0X>XV A }.VXvXbXxXmXlX9 2.fX:Xm s.d.d.i.v.T.o.m ",
") o.C.:.H.:. .+.t.#XpX:X9 o : @ @ 7XFXpXU F F F F F F F F F F F F F F F F K K A eX4.A V 4.VXvXvXnXzXZX7X3 qX[.) r.u.r.d.g.'.c.F.",
"#XQ.' ( G.C.G.Z.M !.uX<Xl @ @ > 7XnX/.6 C K F F F F F F F F F F F F F F F F F K >XK F C 1.BXvXbXvXnXvXVX[.1X[./ a.p.a.f.a.L.' X.",
"N.Q.N.N.XX.XW.).b.^.tX:X7 o @ > 9 %   # K F F F F F F C F F F F F F F F F A A U #.A K C <.BXvXbXnXbXvXnXbXyXe.].~.) h ] | c.] d ",
"z.n @.H. X|.W.'.M.{.tX<Xl o % o . + o 2 K F S F F F F F F F F A F F F F F F F F F F K A $.NXvXbXbXnXbXvXnXdXe.H.W.a._ y.d d d 0 ",
"J.D.6X@X6X@X|. XL.[.tX:X7 X X . . . 1 K F F F F F F F F F F F F F F F F F F F F F F F V <.NXvXbXnXbXnXbXnXnX/.o.k.] ] | ] f.' 0 ",
"` U.|.~.oX4X).oXO.9.uX;X=.6.-.6.-.&.F K F F F F F F F F F F F F F F F F F C F F F F H V 1.VXvXnXnXvXnXnXzXVX{.y.i.u.K.jXB.f.z.[ ",
"k.T.D.H.].8XoX+X..!.tX;Xv 7 9 9 9 W K F F F S F F F F F F F F F F C F F F F F F F F K V }.VXvXbXvXnXvXvXvXVX<Xa j a ].@XR f.@.R ",
"Q.jXcXgXR.XX@X).C.{.2X<X7 . . . # K F F F F F F F F F C C F F F F F F F F F F C F F K S 9XmXfXvXnXbXnXzXaXVX9Xu ^ x.).W.x.x.[ E ",
"Q..X.X'.Q.N.b.W.j.^.tX,X7 + @ > P K F F F F F S F F F F K F F C C F F F F F C 2 F F A U BX>X9XmXvXbXbXnX=XzX9XY.U.j.j.j.j.p.h i ",
"@X@XgXjXhX@XOXF.c /.tX:X7 X 1 L F F F F F F F F F F K C < < # I G F F F F F F F S L V 4.SXW 0XmXzXbXzXmXyXpXwX3XOXh m g f M i w ",
"#XjXlXhXhXiXgX5Xn [.tX:Xl X G L F K F F F S F F F K 2 + . . O 7.$XI F F F F F F H H A eX4.S fXmXnXnXnXnXzXpX7XT.).L.C...I.z.r t ",
"4X@X6X X X~.U.:.k /.tX:X7 o 5 F F F F C F F F F F 2   O O O + 7.&XI C F F F F F L S L `.V W nXnXbXbXvXnXzXpX[.M N ] N ^ ~.b.p.j ",
"8XrXlXrX^.Z.;.n t ^.tX:Xt o 5 H F F F F F F S K C   O O O . + 7.&XI A K F K F K D L D D S <.CXvXbXnXbXvXzXiX9.t y r 0  .} g f z ",
"I.T.).^.-XT.z.| M /.tX<Xk & > H F F F F F F F S $ . + . . . + 7.$XI S F F F L J T Y Y Y Z }.VXvXbXbXbXbXnXiX3.* t ; * s y 0 t y ",
"+.:.:.P.C.~.OXZ. .gXkX5Xk & & 3 F F F F F F K 2   + O O + . + 7.$X8 S F F H H T R B.m.T J aXmXvXbXbXnXbXmXpX2.M [ q e e q w q y ",
"rX8X.XU.).OX5X5X).cXcXwXb & @ @ F F F H F F F < . O . O +   + q.$X8 S H H D J Y B.#X#XT 5.SXvXbXbXbXnXbXbXpX2.n m ) p.s.h r t i ",
"@XXXE.(.(.A.Z.P.P.gXcXgXc & & @ 5 K F F F F < . O . O O . . + w.$XI S F F H H Y m.B.B.[ vXmXnXvXbXnXbXbXnXpX3.r.u.d.r.@XW.l.j._ ",
"F.T.z.J.Z.z.x. .b -XkX5Xk & & @ O < G S F < . . O O O O O . + w.$X8 A F F H H Y T T T +XmXaXfXnXbXbXbXbXnXiX3.j j r.d.XX8Xl.g e ",
"@X].K.(.4X4XW. XG.-X1X,Xk & @ @ O . # 2 # . O O O O   + O . $ w.$XG S F F H H J T D 1.VXfX2.zXnXbXbXbXbXxXtX9.R.J.E.E.Q.W.b.| n ",
".Xb.R.R.T.W.j.J.Z.{.2X;Xl o @ @ @ + O O O + O + O % %.O O . $ w.e.I K F H H H H D $.mXSX1.!.mXvXnXzXbXbXzXqX3.p.d.h.V.n.d.h.j q ",
".XW.W.Z.~.oXC.n c /.tX;X7 o @ @ @ + + + + O + + . =X>.  + . $ w.e.K F K F H H P }.SXmX4.#.mXmXnXnXnXxXnXzX1X3.v.R.Q.Q.d.R.n.M g ",
".X(.Q..XQ.Q.R.G.c [.tX,X7 o @ $ @ $ @ + + + + . =.BX$ . + . $ $X<.S G K K L H `.wX[.W L lXmXvXvXnXbXbXnXdX<X3.l.Q.Q.V.W.@XL.C.O.",
"R.n.v.n.n.n.b.T.b !.tX,X7 $ % $ % % % $ % O 9 -./.VX> . + . % 8.K F K K K G H P D Z P 0XAXvXnXnXbXbXbXbXtX1X3.v.n.n.i.W.8Xj.o.t ",
"A.A.j.N j.G.} { ;.=X2X,X9 % > > > % % : > $ aX%.0.FX-.  $ . 2 L F K F K L K L P L W rXAXvXnXnXnXvXvXbXlX/.2X,.N j.b.b.K.T.u t ; ",
"U.J.j._ I.P.n t C.7X1X,Xv > 6 6 6 0.=X2.> 7 SX7 %.AXxX6 O 5 P L L L L L P P L P 1.vXSXnXnXnXvXvXbXvXmX7X>.qX8.;.n ..:.:./ ` u * ",
"W.K.A.c.D.` i u u =XtX,X%.9 9 7 <XAXAXSX9X*.nX9X>.bXmXaX! L L P P P L L L P $.>XZXVXvXnXnXbXbXbXbXzXZX=.=.tX9.c t t k u ~ h t 0 ",
").).G.Z.S.Y.+XH.@.=XtX2Xe.8.&.8.wX9 *.zXZXfXvXmXVXbXvXVXmX}.$.W P P Y W 5.0XmXSXnXvXnXnXvXvXbXbXvXvXfX+ 2.tX>.c ..! x u t u ; t ",
"x.o.z.z.~ I.4X.XD.=XqXxXGXxX*X/.e.7 7 pXnXnXmXvXvXnXnXvXnXZXNXsXeXeXaXaXmXSXmXvXvXnXvXbXbXbXvXvXvXmX8.  /.<X9.+XOXU.T.P.F.S.~ t ",
"n ^ O.( ~ S.].C.c :XuXdXGXHXFXdXe.>.<XBXnXnXnXnXnXnXbXnXnXvXnXBXmXAXmXmXnXvXvXvXbXvXvXnXvXvXvXvXvXsX-.>XsX;X0.~.U.C.I.+X@XW.) y ",
"t t u y s s s k k 3.*X2XdXMXHXHXvXnXAXnXnXnXnXxXnXbXbXnXbXnXbXbXnXvXvXvXbXbXbXvXvXvXvXvXvXzXvXzXzXsXfXpX,Xw.>.|. XD.+X+XH...h t ",
"_ s.| a.d.r.t.s m ` :.9.,XdXMXAXAXNXbXnXnXNXNXnXnXnXbXbXbXbXbXbXnXvXvXvXvXzXvXzXzXzXvXvXzXvXzXfXsXqX,Xw.*.v ^ M.s.f._ h p * - ; ",
"F.F.XXW.R.Q.W.J.Z.+.^.aXmXCXBXBXBXNXbXNXCXBXNXBXBXBXBXBXBXVXBXnXmXmXmXmXVXVXVXmXZXmXzXzXzXzXzXvX1Xq.%.8 t _ N.l.g.d.g.v.R 0 - o ",
"j.M y b b c c c G.Z.!.!.P.3.9.9.e.<X2XiXGXGXCXtX*X0.9.>.-.*.-.*X[.%.%.%.%.%.%.%.Q =.<XaXwX1X:Xq.Q 8 c ^ H.M.K.J.N.N.f._ _ r X o ",
"a.h.B.N.B.B.N.g l.z.Z.|  . .:.m c >.e.1XdXDXGXDXuXe.=.Q 8 6 6 $X7.            + =.7XpXqX*X6.Q 7 4 t ~ ) '.@XrX.X.XT.v.f.| ) > E ",
"T.Q.'.'.XX'.'.N.x.m { n b c c c { 3.;.9.*XuXMXDXGXDXtX0.&.%.9 $Xq.% % . . 3 0.iXfXtX$X-.Q l E ..@.M.M.L..X8X8XL.'.M.f.l.R s - 4 ",
"v.V.N.a.E.|.C.L.K.| n n b c { F.:.:.,.,.2.e.;XuXMXDXGXNX;X>.&.&Xq.# O 7 e.pXpX1Xe.-.v 8 ! { ..F.S.O.].@X+X8X|.J.M.R h d q p &   ",
"a.v.v.N.N.W.x.| ` m b t t ; n { n n c n ;.:.,.0.*XuXxXDXFXpX/.*X2.Q [.pXpX<Xe.=.8 4 4 x n { / } g S.|.M.z.o.N d.y.a ) d d ) o.E ",
".XQ.U.J.f.s.j g C.| i u m f w w t c c ^ O.:.:.:.,.9.*X2XfXSXAXuX7XpXpX:Xw.&.8 4 z n :.X./ u i ^ m ' K.L.L.m.g.f.R f.N.J.M.L.L.].",
"c.y q q q p j r.l.g.j.R.W.+.M c.l.b.s.g.s.k.+.} z.{ 3.9.*X1XxXDXdX:Xw.%.Q E y y } O.:.@.M.M.o.@.} r z c t t k x D.].|.T.].J.H.H.",
"- , t { D.J.R.M.@.f j ) N d f ' h f h s.M ) s.) ( ^ J.D.3.2.`.,Xe.&.8 4 ^ u d t } x.x.C.M.k.c.o.j a g p d p r q ) L.l.M.M.k.[ f.",
"H.x.X.W.'.'..X@X'.W.J.` T.L.K.J.M.M.z.' u X.| | x.G.z.^ n k =.=.! u t r t ; ; t x } ` m m ~ ( ` m M.E.B.B.B.m.m.E.J.p.c.s._ ) ~ "
};
