/* XPM */
static char *fc24216b252142c3ba07be28435045b13af05xQRXvqnbcl8[] = {
/* columns rows colors chars-per-pixel */
"64 64 203 2 ",
"   c #040204",
".  c #0B0405",
"X  c #060409",
"o  c #0B060A",
"O  c #0C090E",
"+  c #120706",
"@  c #130907",
"#  c #110709",
"$  c #140A0B",
"%  c #1C0D0E",
"&  c #0D0A11",
"*  c #130E14",
"=  c #1C0E12",
"-  c #120E18",
";  c #151017",
":  c #1D1113",
">  c #16121B",
",  c #1B141D",
"<  c #1D181F",
"1  c #210D0F",
"2  c #220F12",
"3  c #231214",
"4  c #291416",
"5  c #23141C",
"6  c #2B161A",
"7  c #2D191C",
"8  c #301717",
"9  c #31161A",
"0  c #331A1D",
"q  c #3C191C",
"w  c #171620",
"e  c #1A1622",
"r  c #1D1925",
"t  c #1F1B29",
"y  c #241621",
"u  c #231A25",
"i  c #2B1A24",
"p  c #231E2B",
"a  c #2B1E2B",
"s  c #291724",
"d  c #331C23",
"f  c #3B1D22",
"g  c #321E2A",
"h  c #391F2E",
"j  c #25212E",
"k  c #2B212E",
"l  c #352123",
"z  c #3C2225",
"x  c #33212D",
"c  c #3F252A",
"v  c #372A2C",
"b  c #3D292C",
"n  c #262231",
"m  c #2A2534",
"M  c #2C2837",
"N  c #2B2738",
"B  c #2D2A3B",
"V  c #322535",
"C  c #3C2534",
"Z  c #332836",
"A  c #3A2935",
"S  c #332739",
"D  c #3F2738",
"F  c #322C3C",
"G  c #3B2C3D",
"H  c #33303F",
"J  c #3E3138",
"K  c #411C1F",
"L  c #421E23",
"P  c #422326",
"I  c #492126",
"U  c #432529",
"Y  c #4A2529",
"T  c #45292C",
"R  c #4A2A2D",
"E  c #52252C",
"W  c #58272E",
"Q  c #54292F",
"!  c #58292E",
"~  c #412534",
"^  c #452A34",
"/  c #4C2E31",
"(  c #442738",
")  c #432B3C",
"_  c #492D3E",
"`  c #532C31",
"'  c #5B2B32",
"]  c #413337",
"[  c #45363B",
"{  c #47383D",
"}  c #4A393D",
"|  c #4C3437",
" . c #543133",
".. c #5A3335",
"X. c #57363A",
"o. c #5C3639",
"O. c #5D3A3D",
"+. c #513C3E",
"@. c #632D35",
"#. c #6B2F39",
"$. c #613036",
"%. c #63333A",
"&. c #6B343C",
"*. c #633A3D",
"=. c #683B3F",
"-. c #71343D",
";. c #2F2E40",
":. c #332E41",
">. c #3B2E41",
",. c #353243",
"<. c #3B3345",
"1. c #373549",
"2. c #3A3649",
"3. c #3C394B",
"4. c #3F3C50",
"5. c #432E41",
"6. c #4A2E41",
"7. c #443345",
"8. c #4B3345",
"9. c #4C3B41",
"0. c #443549",
"q. c #4A3649",
"w. c #433A4D",
"e. c #4C3A4D",
"r. c #503346",
"t. c #52364B",
"y. c #56394E",
"u. c #513A4E",
"i. c #58394F",
"p. c #533F46",
"a. c #433E51",
"s. c #4D3D52",
"d. c #563A50",
"f. c #533C50",
"g. c #523C52",
"h. c #553E52",
"j. c #563D52",
"k. c #523E52",
"l. c #5A3D53",
"z. c #593D52",
"x. c #5A3E54",
"c. c #5C3F55",
"v. c #5D3F56",
"b. c #5B3D52",
"n. c #5D3F58",
"m. c #643D42",
"M. c #6C3C42",
"N. c #753741",
"B. c #733C44",
"V. c #7B3B45",
"C. c #773F49",
"Z. c #7B3F48",
"A. c #52434A",
"S. c #454254",
"D. c #49465A",
"F. c #554155",
"G. c #554255",
"H. c #594156",
"J. c #5D4156",
"K. c #594255",
"L. c #554359",
"P. c #5F4258",
"I. c #5E4158",
"U. c #5B4459",
"Y. c #5D455A",
"T. c #5A4559",
"R. c #5F495D",
"E. c #5B495D",
"W. c #6D4047",
"Q. c #6B464B",
"!. c #744047",
"~. c #73444A",
"^. c #7C434B",
"/. c #72484E",
"(. c #604359",
"). c #62455C",
"_. c #634B5F",
"`. c #7E4750",
"'. c #7D4D53",
"]. c #7F575E",
"[. c #4E4A60",
"{. c #5F4A60",
"}. c #5D5674",
"|. c #624C62",
" X c #6F677B",
".X c #82444E",
"XX c #88434F",
"oX c #854C54",
"OX c #8A4753",
"+X c #85545B",
"@X c #80595F",
"#X c #865256",
"$X c #90535D",
"%X c #9A5A63",
"&X c #8F6068",
"*X c #9C6E75",
"=X c #A8777E",
"-X c #AA7D83",
";X c #B78A8F",
":X c #B4858B",
">X c #B99297",
",X c #A4A2B8",
"<X c #C8A3A7",
/* pixels */
"I.z.J.(.c.d.d.d.c.I.d.y.t.t.i.r.t.y.6.y.c.n.d.y.l.c.c.y.(.(.(._ _ i.y.| ( p.r.y._ ( ( ~ ~ U ( ( r.(.v.(.z.c.c.c.x.r.8.t.c.i.t.i.",
"R.d.z.c.d.y.t.t.y.x.z.x.r.t.8._ _ _ 8.n.(._.U.j.I.J.i.K.(.Y._.K.c.J.J.y._ i.c.c.6.~ _ _ _ ( C r.c.(.c.l.d.i.y.y.r.8._ c.i.8.8.r.",
"H.j.c.x.j.t.y.y.t.n.x.j.d.y.d.z.x.n.x.r.H.R.Y.j.u.f.j.J.y.F.U.F.y.J.(.J.y.t.c.t.( ( ( ( _ ( C r.t.t.r.r.6.( _ 6._ 8.8.t.u.y.t.8.",
"x.j.F.f.f.u.u.u.8.q.s.g.t.q.8.6.e.x.t.q.j.z.H.F.f.f.U.R.H.F._.U.u.U.U.U.d.e._ C r.6.6.6.6.( C ( q.8.( ( ~ h C ( _ _ 8._ _ 8._ _ ",
"G.L.G.u.f.j.u.u.q.8.e.x.u.8.7.7.j.e.q.q.8.5.8.q.f.T.E.{.|.E.u.e.e.F.j.K.u.8.g g 8.g.8.5.q.C C y.6.D C ) ) ) _ 7.6.) ( ) ~ C h C ",
"G.f.G.e.e.f.u.e.8.u.q.q.q.8.7.6.u.e.q.q.7.5.s.g.e.U.E.E.E.K.q.G.5.8.8.7.C g x d h ( S _ D ) _ G h C C C ^ 7.q.e.g.u.7._ ) G G _ ",
"e.s.f.G.f.e.e.0.7.e.t.q.q.e.q.5.>.q.e.8.6.s.h.q.e.K.E.L.K.E.E.K.) x g h x x h i g d i h g.U.U.D V C 5.5.7.8.8.F.g.e.7.C C C _ 7.",
"s.f.G.e.s.e.q.q.0.q.q.e.q.q.q.7.6.q.t.e.8.e.8.0.e.K.K.G.L.G.s.7.A x i g A x g g a g d g F.F.u.) ) 7.8.7.e.e.f.E.E.F.8.G G ) G _ ",
"s.g.g.s.s.e.q.q.e.e.e.q.e.e.e.7.5.5.7.0.D 5.g.k.G.F.f.f.u.q.7.h a x i g i i x g g g i h q.e.q.j.e.q.7._ 5.0.7.q.q.7.7.5.) ) G ) ",
"e.s.s.s.0.q.0.e.q.8.7.0.e.e.7.8.8.0.e.q.5.0.g.q.0.e.e.q.q.q.V i A g i i i i i i i i s i >.s.7.7.e.e.G.e.S A A ) 7.7.G A G G >.e.",
"s.s.k.s.q.s.q.s.q.0.0.q.q.e.7.5.8.0.q.8.>.q.5.7.7.q.0.0.8.G y C J y s x x y i i s s y i q.L.G.G.G.e.F.q.) q.e.w.q.e.e.e.0.0.q.q.",
"s.g.h.0.7.6.5.s.s.s.f.s.q.e.e.q.7.>.0.7.7.q.0.0.q.7.7.e.7.s y i y 5 5 i i 5 y 5 5 5 i 5 A s.s.e.F.S.e.e.S.e.q.q.7.e.e.s.q.7.7.7.",
"e.s.0.>.A 7.G S 7.7.0.e.e.e.e.e.u.7.>.5.g >.s.0.7.0.e.7.V a 5 5 i g i 3 6 3 3 2 = 3 5 g S 7.s.e.u.q.q.e.8.7.>.G >.7.7.q.7.0.J >.",
"7.>.5.7.7.7.>.G >.7.w.s.S.f.e.e.0.0.S S x s >.7.J >.V a V A S 5 = = 3 8 0 4 4 4 2 = 5 a a a 7.e.[ >.q.<.G G S S >.0.<.>.0.7.7.q.",
"0.8.0.0.7.0.<.A G G 7.s.S.S.w.0.C k k a u 5 u x G G V V A V 5 = % 1 3 1 2 3 8 d 6 4 2 : i Z e.7.S s.w.<.>.G 5.0.5.0.7.7.7.5.0.0.",
"V S S S V >.G <.G G A G G Z x y 5 , , 2 , , y s m m A i a u % % = 1 1 : 1 3 4 0 0 7 5 i i S e.H G L.0.G >.S V >.S S V >.2.2.0.0.",
"A >.>.>.>.>.>.0.w.0.7.>.V s a a a a s a y - = e u p a e 2 4 3 % % 1 % 3 : : 1 4 0 7 5 V e.G : a m x V a V V S G S V m G <.0.0.0.",
">.>.<.0.0.0.S :.2.0.<.>.:.S >.>.S a k k a a V 5 : y V s.>.s 7 3 3 3 % % % % % 3 f 7 % a e.V e x V V >.<.>.S S G V m >.>.>.>.<.>.",
"S G >.<.0.>.a >.<.>.2.J >.<.G V m S >.S :.>.7.m : u  X,X}.0.J K.A.3 1 % % % % 7 U 7 1 $ , a k V >.<.G G <.S S m S S G S S >.>.>.",
"m k a k V a s >.7.>.G V S k S S 7.w.s.a.s.s.a.>.k u k 7.7.] ] A 7 8 3 % % % @ l T 0 1 $ = y G a G >.S N S >.S S S S S G S S G :.",
"a p p p t y y t r p a j u u J <.>.w.w.a.<.a.w.0.S i * 2 2 2 2 4 0 0 c 3 % @ @ l c 7 : @ * V A m S Z G F 2.0.>.S V m m m m a a n ",
"S S S S a a n k S G 2.G ,.3.w.0.2.0.>.<.:.0.w.w.k i 9 f Y L P U T T P 7 @ @ + Q U 3 % $ : H V 2.<.V V a m V S x V m V k a a m S ",
">.2.s.w.>.S S n m V k Z 2.w.0.2.<.<.>.0.G Z S.G p d Y N.V.N.E Y P f 8 6 % @ 3 +Xz 3 < 5 5 S <.a.G V a u p p m p k m k m S S >.>.",
":.0.2.w.2.:.S a k u k <.2.0.<.<.>.<.:.:.F j p < : d M.:X%XXX-.E q 4 4 3 @ $ T +X0 : k k m k A M j k k S G S V a s k S S >.:.:.:.",
":.>.2.>.H V S <.<.S n S H <.<.G G >.:.G G r * = 5 / %X<X;X^.-.@.0 7 6 2 % 4 7 0 7 : , u < , i k m S B S :.<.;.S S S :.>.S B ;.S ",
"a m S S V m B B G F F B 2.2.w.2.,.2.:.B p - * * s Q.*X>X=XC.#.#.f d 2 1 4 5 % $ 1 $ ; y < u m m m j u a V <.0.2.>.1.2.2.S a m N ",
"N n m n p m M m V :.:.N 2.w.<.k n >.>.N > = , * d /.@X-X+X&.B.@.0 4 2 4 5 3 $ $ o o , M V m <.2.S S N u N 0.<.<.>.>.3.G a j a N ",
"G S :.:.M H G F F S m m m u e j a j a p * & * * 0 m.M.oXV.&.^.Y 2 4 6 6 6 3 $ $ $ @ > k m 3.D.D.a.:.:.S n m j n n N S n n m G F ",
"n S m m a m S B n m m j u u k k p p p , * * & = d W %.N.N.%.' 8 l R f z 7 7 = $ $ o , j m ,.3.<.2.,.S m k a p a p a n m m B G :.",
"F B B N B S :.<.F <.,.,.F <.3.3.:.u > & & * $ % f W #.V.^.' q X.Q.8 o.!.d 7 7 : @ . j <.3.G p r k k p ; > e r p p p n B :.N m n ",
"N j F G m m S B m m n H B ,.w.3.2.F u > O $ & 3 L ' #.OXoXY m.@X0 P +X`.` z 7 3 $ * B F w.S.j r ,.B p u > , p m m S :.:.B B n u ",
"n F N p r r p w p m t m ,.B ,.,.B m a > ; r k y I ..N.Z.B.~.].d T o.#XM...*.f % $ ; M M ,.S u j B n n a p p u n N B ,.:.N m n m ",
"n N n r e r u e u j n j j m B B j < & ; > , < 3 z N.B.*.=.'.U Q =.%.$XM.' &.Y $ * ; < p r j B H <.,.F r p p y t t p n a n m ;.:.",
"m r r p j j r r p n t n n n m N j r - ; ; ; * 8 P #X=.R o.P 0 !.-./.`.' ' &.L 2 < > & r B 1.H 3.3.1.1.,.n j p a t j B m n B N n ",
";.n a p t w > j j n n B B N n B H j & - ; < < l Y ~.Q z P 4 Q !.&.B.B.%.%.@.Y 9 j ; < H 3.<.<.3.3.3.3.,.:.F 1.2.1.3.,.B N B :.B ",
";.;.:.j r - > p B m n B N n N B H t - ; > < : T o.*.U Y 3 q $.-.@.@.%...W Q L 6 ; r n 3.1.H 1.3.w.3.S.2.:.:.:.:.F ;.2.2.B :.:.,.",
"2.;.;.n r p t t B n B B M n M n p - > > > O @ l  . .R l $ b  .E R U R T ^ z l < r j H <.2.2.3.3.S.3.2.1.:.B S N m ;.<.;.B F :.:.",
":.N p N n n m m n j M B M B j w > t > e &   @ 7  .....6 $ ] } [ +.] { { 8.v l ; < j ,.2.3.3.3.3.3.,.:.F B B :.;.N :.1.:.:.2.1.:.",
"u e N 1.:.B :.1.n j p N ,.3.,.j n w ; > O   . 7  .X.X.3 * J A.} 9.} A.{ [ v j , < j H B 1.3.1.H H B M m n B N :.;.:.1.1.1.:.B n ",
"N n j N ,.B B n t r B a.3.H B M B r ; & X   . 6 .. .Q.5 $ v +.[ } } } { { l 5 < j M m j j m N :.H ,.,.,.1.1.:.j N N m :.m m m n ",
"B n r w w e e > w B 3.4.1.,.1.r e e > > > X   3  .O.Q.3 % 7 Q R f Q R R T 8 : > j j t j M n r t n B B n N F n j t t p p N n m m ",
"p t r p p e r e w ;.3.4.3.3.M p j e > ; > X   :  . .O.7 @ P !.!.q -.! $...0 5 k > r j j p n B B B j t j n n B n N m n N N N B m ",
"m m p n n t j j p M ;.,.3.B j 3.H j > < t .   % /  .P : 3 I !.#Xq .XW M.=.8 < r , r B n m ,.H B n n p p n N B n n m N N N N m m ",
":.F m B B m M B n t p M p j H B r - r n j o   @ T  .P % 3 ! =.^.L .X! =.o.4 : w r B ,.H :.3.,.M n n m p n B :.:.N p k N N N m m ",
"B B B ,.:.B B B n r j w j j M M n H p O > >   @ l b T 0 3 ! %.=.L !.%. . .3 % u B ,.1.2.,.m j n ,.:.:.B N N B :.;.B ;.;.;.;.n j ",
"B H B B ,.1.3.,.n j > j n M H H M j w r H <   . 3 l T P 3  .o.*.R W.*. .T 3 ; r B F B 1.j p B M n B B N N m B n m B :.;.N m p t ",
"B H B B ,.,.;.M M w w M M B H 1.H H j j < ; X   $ 7 z z 3 c / ..` O.o./ b : ; , n B H ,.B B B B m B B B N m B N m B N n n m m n ",
"B B B N ;.;.,.1.3.;.H H H ;.3.3.3.3.H r w M X   @ 3 8 l 3 8 T R  . .T T l * r r n m j m n j j n :.:.N m B B S ;.m N m m m m n m ",
"B M B n H 1.1.1.3.1.H H M H 1.3.3.4.1.4.< ,.M     $ 3 7 3 : 7 v T T z 7 3 $ r j m B M H n n H ,.,.B p t n B M M M m m n n n n p ",
"B H M M 1.1.1.3.3.1.H 1.,.H 4.S.S.S.4.D.B j n   X . $ % 3 : $ 3 P l 0 3 % ; H B H H B 1.,.3.4.3.1.B t e j n m M B M n n n n n n ",
"M ,.;.;.;.3.1.1.1.1.3.3.3.1.3.4.3.4.3.S.B > - o     $ $ : $ @ : 8 7 3 $ $ * t m ;.H H H 3.S.3.1.1.B t > r j n m n m n n n n n n ",
"H 1.,.H ,.;.,.1.3.H 3.3.1.1.3.3.3.3.B j r > B B X   @ @ $ $ . @ 1 % % $ $ u m B B B B M n H ,.,.,.B t e t j n n n B B n M m m M ",
"H ,.;.B ;.,.,.1.;.H ;.1.,.1.1.3.,.1.j j ,.w r j O     . @ $ @ . $ $ $ . r w.B B B M M r j p B ;.B M n n n M M B m m M M B n B B ",
";.;.B M B ;.,.1.H n H H 1.1.3.1.,.1.r B :.n w w > X   . . @ . . @ + + o j n m H B B j & ;.1.B B B m M n n n B B m M M M B B ;.;.",
"B B M n ;.;.1.1.H B M H 1.3.1.1.1.n e N 1.3.n ,.D.*     . . . . . . . * w j B B B N w > r t n t p j j n B ,.B m B m M B F B F ;.",
"B M n B ;.;.H M n M M H 1.3.1.H ;.e t n 3.4.;.n M *     .   .   . . . - j B B N B B w & t > t t w j n B B F n n m M B B B B B ,.",
"M ;.M ;.;.N n n j j M H ;.1.,.H t w r t ;.3.1.t n r             X X m B B ,.H F M M H n j M M t w r t N n p n n m n N B B m B B ",
"n ;.M M N N N n n M M B B M t w w w r t t ;.;.r H j X           O , ,.n j B ,.F H H 3.3.H j j r > r t w w n B N n j t p N B N B ",
"M n N N ;.N B B M n M M ;.;.B n B M N B ;.;.;.r n B j O O O O r n p r r t F N B H H 3.3.H j n n t t p r t B ;.F B n p B B n B B ",
"n n n n n ;.;.B n n n M B B ;.;.B M ;.1.3.1.p w j < r M r j j j m B B n e j n m n M H ;.H B m B m t p p t n m B B B n N p n B B ",
"N ;.M N M N ;.n n M B M M M B M n M M B ,.n n B < < r M t r w t B B p t r t j j r p n M n B N ;.B t r t n j n N n n t t N B N n ",
"N B B n t N ;.N ;.B ;.B n B M n n n t M ,.m N ,.H M j j n t p B B ;.N n j n p j j ;.;.;.M B ;.;.,.B n B ;.;.n N N t t N N j r e ",
"n M B M t M ;.n j n n n n M t n n n n ,.B B B H H H n B m M B B B ;.H ;.B n n n M B ;.;.,.B B B B B n n ;.,.B N N t t n t p p t ",
"n M n n j n M M t j n M B M n M M n M B ,.1.,.1.,.H B B B B ;.n B B B B ;.B B B B ;.,.;.B ,.1.B N ;.B B ,.;.B B t r t t n n p r "
};
