/* XPM */
static char *d67371230cfb4e78cca576871725c0f1jw4hyLt95aNSgsCo[] = {
/* columns rows colors chars-per-pixel */
"64 64 256 2 ",
"   c #0B0203",
".  c #1A0A07",
"X  c #150B0C",
"o  c #1C110D",
"O  c #160E17",
"+  c #1C1218",
"@  c #230D07",
"#  c #320B06",
"$  c #24120B",
"%  c #29140A",
"&  c #38170B",
"*  c #241617",
"=  c #2A1A15",
"-  c #2B1D1A",
";  c #381D16",
":  c #2B221C",
">  c #37241A",
",  c #0F0F24",
"<  c #1B1628",
"1  c #191936",
"2  c #231924",
"3  c #241D35",
"4  c #2D2625",
"5  c #362925",
"6  c #3C332D",
"7  c #2A233A",
"8  c #3D3433",
"9  c #47180B",
"0  c #501C0F",
"q  c #651D09",
"w  c #47271A",
"e  c #522612",
"r  c #582917",
"t  c #5A321E",
"y  c #672A16",
"u  c #722911",
"i  c #69351A",
"p  c #76371A",
"a  c #452D24",
"s  c #483428",
"d  c #583725",
"f  c #56352A",
"g  c #5B3C2A",
"h  c #463B35",
"j  c #673B26",
"k  c #743C23",
"l  c #783A24",
"z  c #673B31",
"x  c #7B451C",
"c  c #5A402E",
"v  c #494038",
"b  c #4C433C",
"n  c #564539",
"m  c #67422A",
"M  c #6C442D",
"N  c #74432A",
"B  c #7A4628",
"V  c #7E512B",
"C  c #684837",
"Z  c #774C36",
"A  c #6D513C",
"S  c #7B5335",
"D  c #74533B",
"F  c #79573B",
"G  c #7C543B",
"H  c #181D46",
"J  c #1D2249",
"K  c #182357",
"L  c #262544",
"P  c #2E2F53",
"I  c #192A69",
"U  c #172C77",
"Y  c #1E3176",
"T  c #1E337D",
"R  c #2A336C",
"E  c #263576",
"W  c #22357C",
"Q  c #4E3A61",
"!  c #3A4570",
"~  c #4B4543",
"^  c #544A44",
"/  c #554C49",
"(  c #575149",
")  c #5B534D",
"_  c #514B57",
"`  c #5A5756",
"'  c #695547",
"]  c #775847",
"[  c #7C5B44",
"{  c #6F5252",
"}  c #645B54",
"|  c #665B57",
" . c #7C634C",
".. c #686159",
"X. c #6C635C",
"o. c #796556",
"O. c #7C715E",
"+. c #525472",
"@. c #65566F",
"#. c #5D626A",
"$. c #6B6766",
"%. c #766D65",
"&. c #797169",
"*. c #7B736B",
"=. c #716774",
"-. c #7B7877",
";. c #853A18",
":. c #913B16",
">. c #823D25",
",. c #89461D",
"<. c #95451C",
"1. c #9E531E",
"2. c #A3521C",
"3. c #894826",
"4. c #844C2C",
"5. c #944D24",
"6. c #8C552C",
"7. c #96562A",
"8. c #844D33",
"9. c #8A4C34",
"0. c #835334",
"q. c #885738",
"w. c #8B5B3C",
"e. c #945A38",
"r. c #A5592A",
"t. c #8B623D",
"y. c #986539",
"u. c #A56837",
"i. c #AD7037",
"p. c #803A4A",
"a. c #8A464C",
"s. c #835B43",
"d. c #885B45",
"f. c #955D43",
"g. c #AD574E",
"h. c #856243",
"j. c #8B6445",
"k. c #84644B",
"l. c #8B684C",
"z. c #936344",
"x. c #9A6744",
"c. c #93644B",
"v. c #946C4D",
"b. c #9B6C4B",
"n. c #9A724C",
"m. c #866855",
"M. c #846A55",
"N. c #8C6C54",
"B. c #8B6D5B",
"V. c #966C53",
"C. c #8C725B",
"Z. c #957557",
"A. c #9B7453",
"S. c #94735B",
"D. c #9C745B",
"F. c #9A7B5C",
"G. c #A56B4B",
"H. c #A8754A",
"J. c #B26F51",
"K. c #A57958",
"L. c #885C68",
"P. c #816B66",
"I. c #82756B",
"U. c #897768",
"Y. c #967A66",
"T. c #9B7B63",
"R. c #847C73",
"E. c #897D75",
"W. c #A67D63",
"Q. c #B37668",
"!. c #CF7B68",
"~. c #AC8356",
"^. c #B38457",
"/. c #8D806E",
"(. c #9B816A",
"). c #86817A",
"_. c #8C837B",
"`. c #988677",
"'. c #A4846B",
"]. c #A98768",
"[. c #B38868",
"{. c #B7946E",
"}. c #A58C73",
"|. c #A98A75",
" X c #B68B75",
".X c #A89479",
"XX c #AB947C",
"oX c #B69679",
"OX c #C69068",
"+X c #1D3583",
"@X c #1D378A",
"#X c #243884",
"$X c #233B8B",
"%X c #2C3C8B",
"&X c #3C4088",
"*X c #624D8A",
"=X c #747787",
"-X c #A5618E",
";X c #D1788B",
":X c #7F8188",
">X c #888685",
",X c #948C83",
"<X c #988E86",
"1X c #96918A",
"2X c #9B948C",
"3X c #8A8C96",
"4X c #999896",
"5X c #A88E81",
"6X c #AC9483",
"7X c #AA9887",
"8X c #B39986",
"9X c #A39C94",
"0X c #A59E98",
"qX c #B8A38A",
"wX c #A9A39B",
"eX c #B6A798",
"rX c #BEB19C",
"tX c #9A9BA7",
"yX c #A4A4A3",
"uX c #ACA9A4",
"iX c #AAA9A8",
"pX c #B3ADA4",
"aX c #B5AEA8",
"sX c #B8B2A9",
"dX c #BCB5AC",
"fX c #AAACB2",
"gX c #BAB8B5",
"hX c #CE9D87",
"jX c #E7999C",
"kX c #C9AB94",
"lX c #C4B9AA",
"zX c #D1B4AC",
"xX c #C3BCB4",
"cX c #C3BEB8",
"vX c #E8B5A8",
"bX c #C6C2BA",
"nX c #CAC4BA",
"mX c #CBC5BC",
"MX c #D0C8BB",
"NX c #E8C4B6",
"BX c #C6C5C5",
"VX c #CEC9C1",
"CX c #D3CDC4",
"ZX c #D2CFCB",
"AX c #D6D0C7",
"SX c #D6D1C9",
"DX c #DAD4CB",
"FX c #DDD8CF",
"GX c #CCCCD2",
"HX c #DBD8D4",
"JX c #EDD0C7",
"KX c #E2DDD4",
"LX c #E1DFDC",
"PX c #E6E1D8",
"IX c #EBEAE9",
"UX c #F4F2F1",
/* pixels */
"F F [ m.D w F G ] [ [ Z >.l a.V.0.Z Z i i N.w i 1.6.4.q.,.p ,.7.6.e.G.y.u.5.7.6.i x x i x V 6.V 6.,.x i e e 0 e r q u i N m u y ",
"n g a f g C A C ' o.{ Z Z A o.[ Z Z S F  .j ; m S N t t M F t.y.M i D Z V N r t i x 4.x V 6.t.t.t.V 6.7.1.6.,.x 6.5.6.,.6.x p p ",
"C.l.d c S.S.U.`.`.<X7X'  . .k.h.w.j.z.w..Xj.F  . .k.l.V F.eX'.x.t.j.6.n..X6.r [ l.v.l.v.~.(.t.~.~.~.H.6.u.H.i.x..X].n.y.y.6.t.t.",
"' ' d A _.`.R.2X<XU.E.' '  .o.B.N.v.Z.j.}.v.(.6X.XZ.C.B F qXv.,.e..Xw.8.x u M ~.j.F Z.oX7X.X.X.X(.i.,.x 3.7.7.V.`.XXn.~.(.]..X.X",
"] m D F [ k.P.] C  .' M.m.o.P.| ! _ U.U./. .k. .A F F [ F.eXT.q.m.}.qXXXF i F F M v.(..X.X8X8XlXbX(.p >.3.p p k t.4.m x (..X.X.X",
"C.N.Y.Y.S.V.W.d. .C.] M.O.A m.@.W W +.E.o.c C Z S S .X].F.A.n.n.n.n.j.(.(.3.i.i.i.y.x..X8XeXlXcXxXF u l j y i l y e e r i x (..X",
"[ o.U.U.B.m.U.[ C.`.o.] A '  .' R E U =X/.' C Z m m qX}.N.V F h.S j.V l.t.1.r.r.r.2.7.;.[ lXcXxXrXQ.[.3.y y y q 0 q i 6.r.7.]..X",
"Z.v.S.(.m.o.m.o.F.`.F.h.U.o.C.N.P U E Y #.(. .F h.N.}.l.M A F S V F t.A.].H.Z.~.^.H.^.[.lXbXxXBXnXNXvXG.9.5.f.G.y.i.~.{.~.]..X.X",
"D.c.N.Y.V.m.C.l.j.v.V.(.`.`.`.Y.O.R T E T =.(.Z.(.(.C.C.Z.C.}.Y.N.v.A.D.'.{.qXeXoX}.'.bXVXlXcXzXvXvXhXXXn.v.qXkXkXnXlX~.F t.(.~.",
"o.] C.`.`.`.T.'.T.S.E.BXiX>X-.-.).! U W T U =X).:X).>X).>X>X>X>X1X3X1X4X1X4X4X4X4XwXmXnXxXcXlXeXzXlXMXpXC m  .l..XoX~.F x m i t ",
"C.C.o.B.S.m.U..X7XeX9XBXwXb E 4 > > K +XT T U J = : : : : : 4 6 5 : 4 5 5 6 6 h b eXMXxXnXxX] C B.zXnX,XG (.'.(.oX].~.(.t.E.t.t.",
"o.B.M.] ] g U.7XwXmXcXcXiX( E #X3 ; 4 I T T +XI . = * = = o ~ :X^ o - = = - - $ _.DXxXmXxXh ; { lXVXbX_.(.].H.i.r.7.6.7.n.rX~.t.",
"C ] o.{ C c (.7X.XwXwXBXyXn P #XW L % 4 U U +XI X + = = * @ ~ :X` . * = : - n ) 2XmXMXsX8 = %.MXVXcXgX<X}.w.3.5.<.<.<.:.7..XB x ",
"[ '.(.XXN.D.T.5X7X.X`.bXyXn s R #X#XJ % < I +XU X R 1 $ * $ ~ 3X/ o = - - h nX).).FXuX4 : `.AXnXnXcXyX2XD.f.q.e.p e e i t.].S t ",
"B.T..X(.s.M.U.2X9XE.-.BXwXb a L +XW +XK $ * I I X I +X< % o ~ 3X/ . - - b lXKXX._.aX- s pXDXbXbXDXR.4X4X;.;.6.4.i     & N 3.,.,.",
"U.7X7XwX(.Y.Y.] B.k./.BXwXn a w K +XW +XY < * H o Y +XT < . _ 4X/ * - n xXMXCX$.h : b nXAXbXnXAX*.- yX<XB i i i 6.9 ; e B i.i.r.",
"o.E.`.5X9X(.7XK.K.G.Y.BX3X! P > ; K U +X+XT O $ * Y T T @X< ^ 3X/ $ n bXCXxXFXX.5 b 9XAXxXCXnX%.^ I.aX2Xw.d.x.b.x.x.y.].kX{.~.K.",
"} &.P.I.Y.U.(.x.V.] I.mX=X#X$XE L % J T T +X, + $ L +XT T U +.4X/ v nXVXxXAXaX) bX*.2XVXAXuX} 2XDXCXCX0XB B ,.;.;.;.;.4.[.<.:.<.",
"A Y.T.k.U.W.|.].F.] U.gX2XP W #X$XR + < U @XO < I $ < +X+XW #X=X/ wXAXxXAX2X| sXAXb sXDX&.( dXDXcXnXmX).B M i k p 4.3.0.n.;.p u ",
"A.8X8X XoX8X X].XX.XU.gX4X5 J T E +XT 1 O U , o @XY + + Y $X! :X) sXnXAX_.} nXSXaXb dXb ( nXVXbXMXxXiX).d.w.Z.Z.h.m t A M r j w.",
"Y.Y.Y.W.W.XX8X6X`.m.U.fX1X> > J U T +X@XJ O , * Y +XT < - J &.mX( dXSX%.X.AXnXCXwX- 5 -.AXbXxXMXnX) wXE.p u j.B m & & 0 y l 6.{.",
"Y.5XY.D.'.5XkX|.l.S U.aX3X8 ; % 1 U +XU @X, @ % I +XW %X< n bXVX_ wX` %.DXnXMXnXX.R.( nXnXbXAXsXh 6 iXR.3.p v.6.,.p p 4.6.y.[.qX",
"Y.7XE.s.Y.7XXXK. XY.I.aX3XT E L $ < K +X+X1 O 3 < Y $XR ( mXMXbX( > _.FXnXMXgXX.eXxXv bXAXCX_.v R.xXVXR.m B 0.4.q.0.q.oX[.H.v.x.",
"P.Y.7XY.B.|.T.W.T.[ *.aX_.I +X@XI < X 1 U K O +XJ + P ` MXVXbXnX8 ( FXnXAXaXX.dXPXR.v KXwX) X.cXDXmXbX%.r r i k k k i }.[.3.6.3.",
"Y.B.Y.6X5XQ.[.|.|.Z I.iX>X4 Y T +X+XJ o < 1 X Y $XJ v VXnXnXnX4X$...VXAX4X*.MXMXAX` ^ *.b wXDXCXbXMXuX&.k.Y.C.l.h.S N oX'.q.t.j.",
"] D.5X8XkX8XkX8XoXB./.iX>X> 1 U T T @XI   $ $ H $XI &.AXnXnX>XgXsX| DX_._.AXnXVXnX5 X ( AXDXbXnXAX,X4X*.w.q.XXJ.7.7.r.r.u.i.^.rX",
"s.k.Q.5X5X8X6X6X6X[ U.iX>X5 5 J U +XT @X1 o < $ J K &.AXnX` 1XFXwX^ R.1XSXnXCXwX^ X.6 2XAXgXnXMX..4 yX%.B i }.e.5.3.,.3.,.:.b.8X",
"f.m.8XY.Y.B.T.|.8Xk.I.iX>Xv ` .._ K +XT ! #.R +...` 4XAX).4XAXnXsX$.aXSXmXVXyX&.wXCX$.uXnXMXMX4X~ ` wXO.N h.Y.c.j.V.t.q.w.j.F.t.",
"z ] .X|.|.D.C.B.N.C *.iX>X> 3 4 X o H U +XX 1 @XI $ %.X._.FXbXAX| ^ CXCXgX) X.MXPX%.6 MXAXwX~ 6 $.1XiXX.y y l ;.].[.:.B 5.r.<.:.",
"c.T.V.T.B.Y.'.}.6XA *.iX_.7 @X+XI < . < U , o W @X< : _.DXnXnXiX) h FX1Xv _.DXMXnX: ` MX..: h ,XmXAXaXX.r j z >.A.e.;.l p <.;.p ",
"G.W.[. XD.eX{.F.|.k./.yX,X> I +XT +XJ . , 1 . I $X< /.HXnXnX1XVX,X5 X.v aXDXbXCX4X. b 6 h _.mXDXnXnXwX%.0.V.x.K.H.q.B p V q.q.q.",
"a.G d.9.c.qXv.v.].h./.yX>X: + T +XT +XI X o @ 1 $X1 wXAXnX&.aXHX).X : bXSXcXCXMXv o * R.AXFXnXbXAX2X4X%.9.u.r.2.r.1.<.;.S u.r.r.",
"C ' ] k.Y.8X'.Y.T.] I.yX>X- $ 2 U +XT @XH . 2 . L < pXmX%.pXSXMX} . ) CXnXAX2Xh ) X.b AXMXxXnXDX%.v yX%.V.V.9.3.p p p u x.G.7.u.",
"f.W.7XT.|.eX6X5X.Xm.E.tX>X- $ $ + K +X#XI   J Y o o 1X*.pXDXmX4X2Xh %.KXaX} v <XPX%.).AXbXAXmX`   / yXo.f.f.b.f.s.G.y.i.^.^.^.i.",
"].6XsXY.B.B.m.k.m.z I.iX>X= * * * . < I @X, O $XE o n xXDXxX1XfXVX4 1X_.h R.MXFXdX6 nXAXbX1Xv 4 : ( yXo.p l k 8.q.e.u.J.i.<.:.<.",
"V.W.6X6XW.m. .T.k.g *.iXE.- I #XE I 1 X 1 1 . E W 4 sXDXxX| wXPX,Xo h ..xXFXnXAXX.$.MX_.R.`.sXnXdX-.wX) r r j t D N l N 4.4.9.y.",
"a.9.8.9.0.C o.D.W.c.E.yX>X= + I #X#X@XI + o @ J T 8 DXdXn 9XDXMX) X *.KXMXnXVXbX4 v ..wXMXAXnXFX).` yX..k.l.f.B l 9.c.j.oXW.K.K.",
"j d w f r w Z h.] z I.yX>X= o + K $XW #X#X, @ * 1 v pXb wXFXmXyX( 5 sXMXMXnX9X%.^ 6 MXDXnXnXDX1X  ` yXO.F Z d.B B >.f.v.qX|.e.8.",
"r j w g g f m.D g d I.yX).= $ @ @ < E #X%XJ + R * > v uXFXnX4XsXwX( DXMX9XR._.DX*.*.SXxXVXAX*.X   ` yX' e s F w.v.Z.N.(.Y.N.m.s.",
"& 9 y d.i j Z Z j j I.yX>X= 1 L L 3 2 H W E o W P 6 sXFXxX).iXPX..R.uX&.`.nXHXnX6 aXSXMX4Xb : : o ..yXA ;.6.3.q B }.`.(.Y.}.F.N.",
"0 a t Z j j.d.0.j w I.yX).= 3 #X$X%X%XL # L * P R U.KXxXE.xXDXxX6 6 -.nXSXnXSX_.) VX<X*.%.2XsXdX6 ` uXb @ # r j d.}.S C S G 0.4.",
"t 8.9.q.G.].oXqXf.8.`.tX).: % 2 R %X%X%XR 9 9 a 7 2XzX2XVXDXiX-Xv s nXMXnXAXnX~ 6 | ,XnXAXAXKXwXo ..yXn # n v.9.K.t.r & # @ @ % ",
"z k l 9.9.f.].lXf.p E.yX>X: - = = P %X&X*XQ 9 Q ! U.sXFXdX| >XVX_.%.KXnXeX*.( s 8 nXDXnXAXVX-.X   $.4X] :.y r u u 0 0 9 # @ % & ",
"W.W.].W.K.^.[.K.b.8._.tX>X5 4 5 > ; a Q *X*Xp.{ @.dXSXE./ <XAXDX^ 1X2X| } _.nX..).KXVXnX,Xh   o X $.yXc & r d i r w r m j w % w ",
"G.K.|.6XQ.J.[.G.G.k _.yX>X8 8 8 7 a a f p.;XjXg.a.eX| I.mXKXCX4X5 ) *.wXAXPXwX..AXwX*.b : o X X   $.yXh @ 0 9 F Y.C.F.~.K.].}..X",
"D.W.8XhXoXW.K.oX'.Z ,XiX1X) ( ( z Q *X*X-XjXjX!.z o.sXPXCX2X4X=.I.MXDXDXAXxXh ( *./.wXdXdX4 X X   %.4Xn 9 0 p 6.z.S.'.^.[.{.{.}.",
"W.W. XoXoX].oXhXT. .<XfXBXyX-.$.@./ @.-XjX;X;Xg.7XLXDX9XO.R.yX-.MXDXnXiX,X&.h _.nXAXAXFX*.X o X   &.4X] k d j 3.B V t D c a s w ",
"5XQ. X[.Q.G.XXS.C.A >XfXHXUXHXyX-X%.{ -X;X-X-Xa.zX9X%.E.xXKX4X3XwXR.*.`.sXdX_.FXAXAXVX$.  o   X / wX1Xo.c.C.K.y.4.i 9 9 # @ > w ",
"Z Z d.D.A.V.W.C c a E.fXfXSXIXUXGXiX-X&.o.{ { C o.,XnXPXxXR.=X-.| 9XCXPXSXo.xXxXwXR.8 X   o ) wXcXyX:Xn j C.B 9.B p i r y y A S ",
"d.' C ] m.O.M.k.D C C %.4XfXBXHXUXIXGXfX3X=.` -XAXKXlX).O.R.1XbXCXnXpX2X) 5 ^ h 6 5 : : ..wXbXiX:X` b ' G s.j i k m t i p N m w ",
"o.C a t d d M Z C C m ] { &.4XfXBXLXUXIXGXtX-.cXlX_._.wXDXuX>X4X%.X._...^ wXaXgXbXnXgXaXcXyX-.` b C q.0.c.c.x.y.y d y 4.y.K.{.~.",
"l.] ' ' c m C m g d g C ' ] o.R.0XfXBXIXUXIXgX0XwXxXDXKXaX) iXaXdXAXAX,XnXFXVXVXMXbXsXtX-.` v > U.c.w.n.z.9.8.x k D m x t.~.n.y.",
"}.8X7X|.Y.T.N.S.d.y ] ] 8.s.] m.B.,X0XfXBXIXIXZXDXZXVXgX` R.FXMXCXdX*.xXBXxXnXcXpX4X-._ v m C F C.A.V t t i i x 0.n.v.A.k.A C m ",
"5X`.W.U.k.'.8X].L.] z z z z Z { B.U.`.,XyXVXAXZXZXLXgX>X$.$.3X-.h 4 5 | 1XiX3X=X-.^ v A i y e y i e.,.p m ,.,.5.7.y.i.OXq. .{.A.",
"Y.`..XV.'..XN.k.0.z f r w 0 a a f g ' 5XDXDXxXaXBXIXIXHXyX-.3X=.: v R.sXtX@X#X#X+X~ Z.C.z.y.6.t.y.H.y.y.S u x 3.6.y.6.3.i  .H.t.",
"k k.w.9.q.3.p i r t f w 0 & ; ; 5 s <XDXaXE.m.%.4XgXHXUXIXVXfX>X,XxXgX4X$.P E #X+X@X*XO.(.A.n.F.t.4.p p p u q r p A.A.x.'.'.t.j ",
"9.w.z.x.z.b.e.9.l l >.l 9 @ . . X *.wX} n C Z { o.R.yXgXHXUXKXbXgX4X$.~ s r i C @.+.E %X@.d.c.z.0.9.:.3.p ;.u p ,.j.[.Q.H.[.l j ",
"v.A.b.K.b.w.d.q.9.Q.jX!.a.[ C M C [ n g C [ C ' ] ' X.>XtXgXBXtX$.^ f A  .F b.t.].s.k { ] 8.z k S K.x.b.G.4.4.6.q.l.8.B p i 8.K.",
"rXoX{.XXA.b.c.c.g.jXjXOXW.oX XG.V.c.[ c s.d.s.M z s h '.U.E.-...) g g /.C.S.N.s.[ s.d.9.B d.V.D.].].].[.c.N 6.,.3.7.y p ;.m K.u.",
"eXK.K.v.f.z.w.9.J.!.J.u.f.w.9.f.q.8.g w M j t w ; a f d.c.G g A k.C ] S.C.m.k.t.K. XXXQ.W.8XoXhX].K.t.K.z.q.~.i.J.^.H.5.7.x.[.[.",
"(.D.v.q.N V k k Q.Q.y y z F d.m.B.N.[ ]  .n a t a w * > s t d C D Z s.M g g D 0.9.f.K.hXNXNXoXK.x.0.V 8.B (.{.oXhXqX{..X8XoXqX{.",
"B 7.e.0.N w.N w.T.'.N.C s.l.|.T.F. .] ] k.C > j w ; : > 5 s C m M Z r t N B 3.9.3.e.oXNXJXJXjXQ.].V.s.Y.{.~.].oX{.].].~.kX.X].|.",
"t.q.0.w.A.].'.W.].8X8X].'.K.0.M m t j Z V k V g w z j m m g g j d F w.z.q.8.f.f.y.K.hXhXvXJXvXQ.K.b.N v.{.{.].{.~.A.v.4.F.F.v.z.",
"C C Z T.XXXX.X|.'.6X6XS.k.s.D C d t j j j d g s C d a w w w w t C  .0.d.z.q.Z N Z f.H.^.OXvXhXg.w.q.d.S S h.l.F S S M i D Z.q.B "
};
