/* XPM */
static char *_ffdd7dcc2fc4bacc3c0223ce216dc21Kv9USbxFn1BJrcsx[] = {
/* columns rows colors chars-per-pixel */
"64 64 256 2 ",
"   c #020101",
".  c #0D0405",
"X  c #0C090A",
"o  c #120606",
"O  c #1B0504",
"+  c #110708",
"@  c #140A0A",
"#  c #1C0C0B",
"$  c #17100F",
"%  c #1C1617",
"&  c #260904",
"*  c #230C0B",
"=  c #2C0D0A",
"-  c #330E0C",
";  c #3B0E0B",
":  c #22110E",
">  c #2B140D",
",  c #35140C",
"<  c #3B120C",
"1  c #251311",
"2  c #2A1512",
"3  c #2C1A15",
"4  c #271C1A",
"5  c #371914",
"6  c #2D211B",
"7  c #382319",
"8  c #212226",
"9  c #2A2525",
"0  c #352B28",
"q  c #35302E",
"w  c #393435",
"e  c #420F0A",
"r  c #45170C",
"t  c #4C130D",
"y  c #57150E",
"u  c #471A14",
"i  c #551712",
"p  c #671A0D",
"a  c #641711",
"s  c #6C1A13",
"d  c #741A13",
"f  c #7B1C14",
"g  c #462518",
"h  c #4C2C1C",
"j  c #532811",
"k  c #582A18",
"l  c #58321C",
"z  c #68280F",
"x  c #662B18",
"c  c #752D17",
"v  c #67351B",
"b  c #73351C",
"n  c #753819",
"m  c #7B3C1B",
"M  c #4B2B25",
"N  c #483427",
"B  c #553524",
"V  c #5A3A27",
"C  c #433B37",
"Z  c #563B32",
"A  c #662C24",
"S  c #643B23",
"D  c #663A26",
"F  c #6C3B23",
"G  c #753B24",
"H  c #5D432E",
"J  c #49443E",
"K  c #574539",
"L  c #65422A",
"P  c #6C432C",
"I  c #784527",
"U  c #72432B",
"Y  c #7C4B2C",
"T  c #694835",
"R  c #744C32",
"E  c #7A4B34",
"W  c #784837",
"Q  c #715137",
"!  c #7B5335",
"~  c #79553B",
"^  c #3C3D42",
"/  c #3F4044",
"(  c #4A4644",
")  c #564B48",
"_  c #59524E",
"`  c #595756",
"'  c #6A5646",
"]  c #795A45",
"[  c #72504B",
"{  c #635B56",
"}  c #7C624B",
"|  c #69625C",
" . c #796857",
".. c #595F64",
"X. c #5B6167",
"o. c #676666",
"O. c #746B65",
"+. c #78736C",
"@. c #6E7073",
"#. c #787775",
"$. c #8C180D",
"%. c #831D14",
"&. c #8B1E15",
"*. c #951E15",
"=. c #AB1C10",
"-. c #B61F13",
";. c #89241B",
":. c #982117",
">. c #863A1A",
",. c #903718",
"<. c #A42419",
"1. c #A82218",
"2. c #AC2419",
"3. c #B52216",
"4. c #BB2215",
"5. c #B4261A",
"6. c #BC261A",
"7. c #B3291D",
"8. c #BC281C",
"9. c #AA321D",
"0. c #853B25",
"q. c #8B3832",
"w. c #A92C22",
"e. c #B42C22",
"r. c #A9392F",
"t. c #B7352A",
"y. c #C52416",
"u. c #C3291C",
"i. c #CA2B1D",
"p. c #D42C1D",
"a. c #E02E1F",
"s. c #C52D21",
"d. c #C3372D",
"f. c #88441C",
"g. c #954A1D",
"h. c #A7581C",
"j. c #834424",
"k. c #894726",
"l. c #844B2C",
"z. c #8B4B2B",
"x. c #944A28",
"c. c #8A532C",
"v. c #98562A",
"b. c #824C34",
"n. c #884A34",
"m. c #944735",
"M. c #845333",
"N. c #8B5333",
"B. c #895837",
"V. c #835B3D",
"C. c #8C5C3C",
"Z. c #965936",
"A. c #AE492C",
"S. c #A4582B",
"D. c #A55D33",
"F. c #96612E",
"G. c #89623E",
"H. c #97643B",
"J. c #A56529",
"K. c #A76738",
"L. c #B17035",
"P. c #835C43",
"I. c #895A45",
"U. c #975A45",
"Y. c #96504D",
"T. c #AD554E",
"R. c #896549",
"E. c #9B6444",
"W. c #976948",
"Q. c #8E704B",
"!. c #9A714D",
"~. c #876957",
"^. c #8B6C53",
"/. c #936C53",
"(. c #9A6B56",
"). c #8A715B",
"_. c #9B7453",
"`. c #94735A",
"'. c #987758",
"]. c #9B755A",
"[. c #A46A47",
"{. c #A5754A",
"}. c #A76A58",
"|. c #A67858",
" X c #B67150",
".X c #8A6A68",
"XX c #87756A",
"oX c #967865",
"OX c #9C7C63",
"+X c #837C76",
"@X c #A47B63",
"#X c #B0786E",
"$X c #C8675A",
"%X c #C67668",
"&X c #7C827F",
"*X c #B9804C",
"=X c #AA835A",
"-X c #B3855A",
";X c #9B836B",
":X c #87837D",
">X c #9B8777",
",X c #A78567",
"<X c #A3866B",
"1X c #AB8B6C",
"2X c #B48968",
"3X c #A48B74",
"4X c #A78A75",
"5X c #B58F72",
"6X c #AB9377",
"7X c #AB937B",
"8X c #B69678",
"9X c #C68751",
"0X c #C98975",
"qX c #687A85",
"wX c #797C83",
"eX c #817C80",
"rX c #7F8389",
"tX c #898888",
"yX c #928D8B",
"uX c #97928C",
"iX c #9A9896",
"pX c #B88582",
"aX c #AA9786",
"sX c #B49D84",
"dX c #B89986",
"fX c #A59D98",
"gX c #B9A48B",
"hX c #A9A39C",
"jX c #B8A895",
"kX c #BBAE9A",
"lX c #9D9FA1",
"zX c #9BA5A7",
"xX c #AAA8A4",
"cX c #B5ABA5",
"vX c #B8B3AC",
"bX c #ACB2B0",
"nX c #B9B8B5",
"mX c #C3A487",
"MX c #CBAE96",
"NX c #C4B39B",
"BX c #E1AA9C",
"VX c #C3B5A6",
"CX c #D1B2AA",
"ZX c #C3BCB4",
"AX c #BEC0BD",
"SX c #C8C3BB",
"DX c #D5C5B4",
"FX c #ECC5BC",
"GX c #CAC9C6",
"HX c #D2CCC3",
"JX c #D9CAC2",
"KX c #D9D3CA",
"LX c #D8D6D5",
"PX c #EDD6CF",
"IX c #E7E3DF",
"UX c #E8E7E6",
/* pixels */
"<X^.'.6X5X=X-X-X-XL.*XG.8XgX6X<XQ.B.Q.G.'.>X_.Z.n n n n >.>.I  X%X0X%X$X Xx.m N.-XJ.J.L.J.J.F.L.{.{.F.f.f.m W.;X`.oXoXoX] R.R R ",
"jXjX|.|.,X/.!.gXkX;X=XgXkXkXkXgX;XF.H.H.H.Y '.6X! U R b n G k.J.v.x.q.x.x.I m k.Z.H.J.f.G.H.F.G.=X=X! v j j L V l T ' l l P j l ",
"kXjX@XE.H.h.h.K.=X6XgXgX6XkXkXsXgXgX1X,XK.g.c.C.f.M.Y ,.>.>.N.x.,.,.c 0.x.g.Z.J.S.S.v.v.6X-XK.L.Y ;X Xj   # h l L P G.! >.z x z ",
"oXoX;X>X1X5X2X=X1XkXkXgXkXjXjXjXjXkXsX6X7X6X8X6XB.v f.x.S.S.v.S.J.K.K.J.S.h.A.A.A.9.9.w.K.G.I f.v =X{.f.j O l !.Q.!.6X!.>.>.n f.",
"^.oX4X4XjX7XjXvXSXDXkX8XNXVXVXgX6X7XjXgX<XaXVX7X|.{.H.{. XH.v.F.{.*X|.t.6.2.2.7.5.5.5.5.2.9.B.b.I F.{.H.Q.V.G.=X,X|.6X,X'.6X_.c.",
"}.|.{.}.7XoXoXoX6XkXjX'.8XNXkX3X_.;X8XkXkXgX<X<XH.c.c.v.v.c.v.c I H.e.-.3.1.*.=.1.7.5.e.7.e.t.}.K.H.{.H.,XgXZ.f.k.c.G.k.m '.~ k ",
"oXoX/./.7XaX8XsX^.R.Q.} fXkXkXuX4XaXhXkXkXjXhXgXaX>X4X4X3X3X<XXXW.r.6.5.4.t.T.}.}.T.t.5.7.w.6.}.aXaXaXaXgXaXB.I n n U I v Q.G.P ",
"gX4X<XoXoX4XaXR.} Q.;X;XSXAX&X#.@.@.+.+.#.#.:X#.:XtXtXtXuXyXtX#Xt.6.e.6.;.O.dXdXdXfX+Xw.5.7.6.#XAXGXGXLXGXhX|.R.).~ R V.~ V.R.G.",
"oXoX4X`.).>XoXB ;X`.Z.}.vXnX_ 6 6 3 3 6 3 6 6 6 6 6 6 9 7 9 c s.-.-.<.t M w.2.-.3.5.M 7 5.e.e.t.A._ ` +XbXoXZ.=XgX~ ! P R I Y P ",
"3X;XoX~.^.oX] } gX6X2X'.bXnX{ 7 9 5 3 3 3 3 3 4 2 2 2 1 1 2 <.c } | $ = 8.u.6.6.e.5.u.u a 6.e.e.t.0.9 O.nX).I !.7Xb F U v ! L j ",
"aXuX).8XMX,X|.2X-X,X-X/.vXnX_ 5 5 4 3 3 3 2 2 1 1 1 1 1 : 1 # u Y.Y.# w.s.d ; t 1.u.8.1.1 2.e.e.e.e.4 o.AX~.n >.j.n n m ! } R ~ ",
"aXVXuX7XkX`.`.OXOX3X^.' vXvX_ 3 4 3 3 2 2 2 1 1 1 1 : : : $ s u.y.*.t <.t @ i t - s :.u.- i y.5.e.e.3 o.AX] >.>.>.c >.f c.! F =X",
"gXVXVXgXgXdXgXgXsX6XR. .vXvX) 3 4 3 2 1 1 1 1 1 : : $ : $ u u.7.-.W $ * + <.p.p.f # - <.u X s e.6.w.: o.AX} F I n f.Z.H.=XR.v Q ",
"JXJXJXJXCX5X=XVXdX'.W.^.bXxX) 3 3 2 2 1 1 1 : * : : : : @ %.u.3.w.X.*.f a s.s *.e.t <.- * 5 # <.6.*.X O.nX .! Q.W.|.!.{.=XW.R ] ",
"cXjXvXVXsX@XP.4X<X`.~ ' bXxXK 1 3 2 2 1 : 1 1 1 : 1 $ # # *.5.-..XY.y.%.i i = - i - i.t X u.t a p.a a oXAXQ R 8X'.b.I f.m f.n l ",
"@X3X>X4X).] ^.;X`.^.T ' xXxXK > 5 2 1 1 1 * o # : o + + i 6.2.e.+Xe.-.8.# a p.a t 2.i.t - s.f = w.5 -.}.bX} H.8X1XQ.~ I I G.! G.",
"|.dXgXpX|.[.m.U.U.N.D  .xXxX( 2 2 2 2 > * 3 O.fXhXuX0 o <.6.3.r.+X7.6.3.- 1.u.f t <.:.# %.i.:.@ @ u 6.T.bX] v.L.L.{.;XR.'.4X@XE.",
"|.8XpXgX8X|.Z.Z.[.Z.T ~.xXhXZ > 5 2 2 2 # C ZXKXSXKXfX& 8.5.3.r.eX7.5.6.O s u.s.&.*   = 5.6.<.@ @ <.y.T.bXQ m f.>.c.7X~ n.G b f.",
"dXdXaXoXoX/.7XmX@X4X).] xXlXK > 5 5 2 2 2 # 1 +XHXKXxX- 6.5.3.r.qXm.-.e.%.# = t y X - 5.5.6.:.X %.s.-.T.zX} G.R._.,XgX|.R.V.V.Y ",
"fXjXVX>XoX^.3XmX|.#X/. .xXfXK 5 5 5 2 2 = * * o ( xXO.O 7.5.5.6..XX.$.u.u.5.d   X a 2.i.6.6.= < s.e.-.oXxXQ I V.B.B.M.M.c.,X[.x.",
"aXaXfXOXoX>XgX8X/.oX`.~.cXfX) i g u 5 5 2 * 1 * o o O + d u.2.3.t.) X y 5.6.u.*.- a *.&.s # @ <.-.e.=.+.hXQ c.!.W.F.G.H.I G.I >.",
"dXgXoXaXvXVXjXaX`.kXdXoXcXfX[ A A g u 5 2 * * * : # # @ # *.s.5.6.6.;   ; 1.5.u.<..       r 1.u.-.s.d @.xXN 5 7 7 > g L I F.W.B.",
"jXjX@XcXZXvXaXoX~.CX#X.XcXcX%XY.q.A u 5 2 > 1 : * # # # + # *.6.-.s.<.@ + @ O * o @ i s ;.y.6.5.e.-.= @.xX4   . &   . C.DXNX8X|.",
"gXVXaXaXdXjXdX4X<XjX4X.XCXFXPXBX XA u ; = * O # O o o # o . * 2.e.5.5.* *.&.y t y *.i.u.u.5.5.5.s.f   +XhX6 . & ; & g v.Q.>X'.Y ",
"2X5X-X1XNX<X,X1X1XdX#X}.CXPXPXFX0Xq.M w 9 8 9 4 4 4 % 1 1 : X a -.5.y.; %.i.u.u.i.6.2.5.5.5.5.5.6.&   :XiXR.K.K.L.L. Xv < l z j ",
"}.}.E.|.kX1X5XgX8X2X}.].CXFXFXBXpX.X.X.X}.Y..X......X...X.X.o.qXY.-.y.q._ 6.6.2.2.2.6.6.5.6.6.4.q.` w :XiXV.L.*X9X XJ.F.c.g.f.f.",
"W.{.|.,X1X/.I..X<X(.V.^.VXMX%XY.A ;.-.y.-.-.-.*.%.a - + @ # o ^ tX[ $.s.s ; 2.6.4.6.%.;.2.1.&.t 8 q xXvXtXP l.I F.f.n l.m m h.g.",
"Z.0.B.U.Z.m.l.4X7XU.b.(.cXfXY.A r.s.6.3.<.<.5.6.u.u.u.i . # o w wX` . ; t X * y p ; . . # O . X   w SXHXhXQ c.!.6X!.l G.H.=X=XH.",
"W n.G G G W I.gX5XE.G ^.xXiXZ ;.s.5.e.5.<.<.6.6.6.6.6.2.@ @ . w tX) . . X + + X   X o o + X o o o cXGXSXSX6Xc.Z.[.f.c.6X=XQ.H.=X",
"|.@X@X1XdX5X4X@X|.Z.A ~.xXyXw.u.e.6.6.5.<.*.a t a &.1.y.e + o ^ rX( . @ + + + + @ o o @ + o + o . { KXSXSXjX<X|.l.n Y G.L } ;X=X",
"0Xv.[.2XMX2XdX5X8X#X0.`.xXt.y.6.6.*.- * - X + <.*.%.f f = +   ^ tX( . . + # $ . . o . + . + + + .   J cXnX<X'.6X6Xc.L.L.J.v.H.6X",
"N.Z.K.8X7XR T G D D j  .#X-.-.e.f @ i &.*.&.i y 6.u.6.1.e * %.[ rX( . o.fXcXxXuX9 . @ . + . . o o . . yXuX~ l.B.!.v.J.L.L.h.h.J.",
"l.Y Y E.N.x j g D k 5 ' t.-.e.<.@ f s.6.6.i.p.t y s.5.6.s.a -.y..X^ o ZXHXGXSXKXvX@ + o o . . o . . @ yXtXQ ! '.2XK.J.c.K.L.F.v.",
"0.0.x.>.,.x.x.F ~ G G q.s.3.y.t e s.3.5.2.t - ; + d 6.2.6.*.%.4.t.^   +.HXZXSXJX` . + X o . o . o . @ iXtXb l.v.=X2X8XgX0X1X=XW.",
"G I.W.n.z.k.z.C.OXI x ;.e.-.-.* &.s.2.u.e - *.5.*.* 3.5.6.%.s 6.e.u X o.KXHXHX{   X . o . . o . . . @ iXtXx.h.J. X*XL.NX{.v.k.f.",
"[.@X|.x./.1XE. X-X2XI ;.2.s.f + <.3.y.%.= p.s.-.y.- f 6.6.f s s.s.y   _ cX:Xw     . o . o o . o . . $ iX:X/.|.=X{.H.!.8X'.N.I k ",
"n b 0.c U |. X[.D.x.I m.-.w.3 o :.s.%.X - a d 6.-.; ; :.i.y %.u.6.u   . @     $ ) %   . o X + . o . $ iX:X,XgX=X|._.'.=X<X'.B.U ",
"h h l W ~ N.k.c c r r [ s..Xr.i f 2.= O * %.& t e :.<.f s.- 2.-.r.9 . @   +.( 4 xX. o o . . . o . . 1 lX#.'.3Xz v U F I G ~ M.Y ",
"R.! 0.Z.K.D.v.v.S.D l.oXT..Xy.*.* ; <.s f a.; t s.s.*.t e d y.-.r.q . . . 9 nX( X X . . . X . . o . 1 iX+XaX4X~ P.I.Q.R.! M.P '.",
"1X(.E.|.-X-X X X[.6X_.;XzXT.-.s.; - p.d <.6.a - *.*.- + &.6.5.y.Y.8 . + o   q SX$ . + . o . . o . . 1 iX:X~.~./.'.4XNX5XK.k.v.Z.",
",X5XdXgXdXdXgXmX0X8X;X>XzXT.-.e.*.y p.d a s.6.<.t i $ s i.6.-.q.qXg . X @ O.9 uX:X  + . . . . . o . 4 iX+XP P ~ R.T =XF.f.g.,.n ",
"U.R.(.I.I.l.! 5X{.V.U XXzXU.-.6.<.; 5.6.; &.i.u.i.s.t 2.6.&.& ..T.1.. . 9 uXw ( HX$   + X . o o o o 4 fX+XQ W G.W D '.B.l.G.V.B.",
"G b v D D v R.8XH.A r .XzX(.-.e.5.= <.s.%.+ i a a - $ t = X f 5.y.i   + .     q KXw .   . . . . + . 4 xXXX/.9X$XK.J.L.k.|.=X8X|.",
"Q ] I.~ R.'.<X].'.H S +XzX>Xe.e.s.e s s.e.;.t t s *.7.w.X %.s.6.r.% . X + @   w JXq hXo.. . o . . . 6 xX+.OXBXFX0XS.A.,.K.j.!.V.",
"T =X-X|.{.,X8XR.T 7 S XXlXfXT.e.8.*.X f 8.s.s.s.s.s.<.; s u.3.w.@.% . + .     _ HX$ o._ . . . . + . 4 hX+.|.mXBXBXdX|.[.(._.|._.",
"S Y I M.W U.R.B g g D oXlXZXpX6.e.s.A X 2 ;.w.e.:.t 5 ;.s.7.4. .qX% X + 4 9   yXiX      . . . .   @ | xXXXS.L.D.8X8XA.h.S.D.S.S.",
"W.W u h H P h , M B A >XlXlXyX6.e.e.s.w.0 8 8 4 8 A s.s.7.e.f X.wX% + X 8 ZXJ ZXJ   @ @ + .   % | cXZXlX+.k.m.x.5X|.x.x.,.g.,.f.",
"n.m.n.G ! x < < i t 5 A Z wXtXT.-.5.e.d.d.r.q.q.Z M 0 0 u 2 @ X.rX% + + o 9 +XxX  . .     % O.cXZXlXtX` K n.B.|.{.{.N.z.n x B.W ",
"! I.'.R._.Q B l h V H H D ^. .@.Y.e.e.e.T.%X%X$X$XT.q.8 8 4 % @.wX4 @ #   0 HXq       6 +.nXSXiX#.` C V z.Z.v.k.k.Z.Z.j.0.n '.Q ",
"8XgX8XgXVXmX8XmXP.T h k S U F x K O.tXyXcXUXPXSXpXT.{ ^ 0 0 4 wXtX% $   q KX`   . 6 :XnXZXiX@._ C 6 , k l n G R M.!.!.G.N.Y G.v ",
"2X{. X-X-X=X5X'.k T H.j.x G b x r B ' rXlXGXIXUXLXlX@.iX{ q C nXwX4   J KX|   q :XSXnXiX@.) w g < = r j x c j G._./.!.Q.~ G.U `.",
"m n m v x x k u > 2 l L U F v ] Q P } T | tXbXGXUXUXcXcXZXtX^ wXrX% { KX` 0 hXZXvXyXo.( 0 6 r j l v >.x.D.k.Y !.V.! ! R R Y l } ",
"P.G G ; : 7 = g F 5 & 5 Q P G H.E.Z.N.N.C.R.+.uXbXGXUXUXGXHXcXyX#.q hXXX:XSXSXiXX.J J H K V L S F I c.{.=X!.!.L g h l S S v S ! ",
"E.U.0.i > , < l F < < = V b.B.K.K.K.K.{.K.U.W ( o.yXbXLXUXLXKXGXlXo.tXvXbXtXo.J 0 H Q Q R l L k n Q._.z.c.v.m m z j r < r z z y ",
"P b G W U P W N.b h D B T b.Z.B.B.M.E.(.W P Q ] [ .X+.tXnXLXUXIXHXHXGXyX` w N 7 N R H N V l R.E.x.|.,X>.k.F.v.f.b m I M.v.g.f.f.",
"W b.I.B.U.@X|.U.n.] (.{.}.E.|.!.I.D ^.oX).] ).).~.[ XXhXZXbXnXGXbXyXhXZXuX .H H } } ' R L Q 1XI.N.!.B.c I l.I n ~ ~ P `.R.c.G.B.",
"`.}.|.@X(.'.E.Z.[.5X|.}.}.[.E.E.I.W P.] P T P R ;XvXZXuXXX' O.rX@.J 0 ' aXZXxXXXQ E E b.b.R ;XI.j.I n f.c.Y I l.F.m z y r r e ; ",
"gXaX7XsX4XsX7X@X/.R.C.Y v x v R R A P S B T >XvXhX.XN 0 Z | XX] K V V B l Q >XZXnXjXoXP.b.R ;XR.v k ! !.c.~ Z.c.f.m f.J.h.J.g.g.",
"^.~.'.OX/.].7X/.P.R ^.} Z B D L l g - h 5 { XXJ 7 h N T Q ' ' R.] L ~.~.] R.^.OXoXuXjXaXP.I.,XW.Q.,X=X|._.=XG.I I m F.{.H.{.{.=X",
"] R.^.P.W B.G.C.W.W R.P A k A x x x j V h g < u h } T D Z Z B B B l ' ] W E E Q ] } ~ l.k.k.l.x.v.z.v.Z.Z.k.f.m m f.f.v.m I H.Q.",
").] }  .~ ! R P D V T S Q W W G n.b.b.~ R H j r g v h g h M g g k g h D S V D Q H H B l l l F S k k v v v m b v m I I f.c.F.G.G.",
"'.;X^.).;X^.~ ~ ~.R.R R.R.OX@XdX0X XU.(.V.R.l , < , < , , , > , g h x j j h - B B , l v n F.F., & O O O & , I F.F.K.{.v.Y I v v ",
"B.C.M.~ ;XW.N.B.R.C.M.W.D Y.0XCXCX0Xm.B.n ~ P = > > = , 5 h 7 7 j k x c x b j r g j v b v f.m l < , & & , , j Y c.N.L < e r j z ",
"v v U B S I I I G D I I D m. XmXpX Xl.I v R R P j N B H V T Q Q T P R R P D l l V 7 7 N L c.G.<XH.~ ~ Q ~ H 7 > * @ & 7 S ! G.H."
};
